<?xml version="1.0" standalone="no"?><!DOCTYPE svg PUBLIC "-//W3C//DTD SVG 1.1//EN" "http://www.w3.org/Graphics/SVG/1.1/DTD/svg11.dtd"><svg t="1588821421305" class="icon" viewBox="0 0 1024 1024" version="1.1" xmlns="http://www.w3.org/2000/svg" p-id="1918" width="200" height="200" xmlns:xlink="http://www.w3.org/1999/xlink"><defs><style type="text/css"></style></defs><path d="M229.877551 187.110515c-36.842093 0-66.708308 30.893614-66.708308 69.00256v511.771803c0 38.108946 29.866215 69.00256 66.708308 69.00256h564.244898c36.842093 0 66.709331-30.893614 66.709331-69.00256V256.114099c0-38.108946-29.866215-69.00256-66.709331-69.002561H229.877551z m0-34.501792h564.244898c55.263651 0 100.062973 46.340421 100.062973 103.504352v511.771803c0 57.163931-44.799322 103.504352-100.062973 103.504352H229.877551c-55.263651 0-100.062973-46.340421-100.062973-103.504352V256.114099c-0.001023-57.163931 44.799322-103.505375 100.062973-103.505376z" p-id="1919"></path><path d="M218.60481 161.065326h577.139579c49.037856 0 88.790232 39.753399 88.790233 88.790232v133.186372H129.813554V249.856581c0-49.037856 39.753399-88.791256 88.791256-88.791255z m-25.27157 34.844599L232.959749 363.543853l32.735566-5.281283-39.62651-167.633928-32.735565 5.281283z m132.934638 0l39.62651 167.633928 32.735565-5.281283-39.626509-167.633928-32.735566 5.281283z m132.933615 0l39.62651 167.633928 32.735565-5.281283-39.625486-167.634952-32.736589 5.282307z m132.934639 0l39.626509 167.633928 32.735565-5.281283-39.626509-167.633928-32.735565 5.281283z m132.933615 0l39.626509 167.633928 32.735565-5.281283-39.626509-167.633928-32.735565 5.281283zM644.99399 580.457138c0 15.230889-7.658424 29.368888-20.213367 37.241183l-149.315724 93.585445c-6.494924 4.071735-13.93743 6.225795-21.50785 6.218631-23.082718 0-41.714054-19.503193-41.71917-43.462884V486.87067c0-15.604396 8.030907-30.02892 21.071921-37.766139 13.104459-7.77815 29.221532-7.578606 42.157145 0.51984l149.312654 93.586468c12.558014 7.870248 20.214391 22.013363 20.214391 37.246299z m-37.497009-7.737218L458.189444 479.136521c-2.553149-1.598404-5.699816-1.63729-8.280594-0.1054-2.650363 1.572822-4.316306 4.563946-4.316306 7.839549v187.16475c0.001023 4.997827 3.791349 8.965186 8.379855 8.965186a7.893784 7.893784 0 0 0 4.204765-1.222851l149.314701-93.585445c2.556219-1.602498 4.146437-4.54041 4.146436-7.736195 0.002047-3.198855-1.588171-6.136767-4.14132-7.736195z" p-id="1920"></path></svg>